<svg id="Capa_1" data-name="Capa 1" xmlns="http://www.w3.org/2000/svg" viewBox="0 0 267 264"><title>explorar</title><path d="M132,66a75,75,0,1,1-75,75,75.08,75.08,0,0,1,75-75m0-6a81,81,0,1,0,81,81,81,81,0,0,0-81-81Z"/><path d="M151.09,112.45l-23.6,20.37a8,8,0,0,1,11,9.85l.69.61L157,117.72,174.84,92Z"/><path d="M174.84,92l-23.75,20.5-23.6,20.37a8,8,0,0,1,11,9.85l.69.61L157,117.72,174.84,92Z"/><path d="M111.65,167.67l23.6-20.37a8,8,0,0,1-11-9.85l-.68-.61L105.79,162.4,87.91,188.17Z"/><path d="M123.53,136.84,105.79,162.4,87.91,188.17l23.74-20.5,23.6-20.37a8,8,0,0,1-11-9.85l-.68-.61Z"/></svg>