<svg id="Capa_1" data-name="Capa 1" xmlns="http://www.w3.org/2000/svg" viewBox="0 0 267 264"><title>home</title><polygon points="64.31 113.5 133.5 51.67 202.69 113.5 64.31 113.5"/><path d="M133.5,52.34l34.58,30.91L201.38,113H65.62l33.3-29.75L133.5,52.34m0-1.34L98.25,82.5,63,114H204L168.75,82.5,133.5,51Z"/><polygon points="151 212.5 151 156 115 156 115 212.5 63.5 212.5 63.5 114.5 203.5 114.5 203.5 212.5 151 212.5"/><path d="M203,115v97H151.5V155.5h-37V212H64V115H203m1-1H63v99h52.5V156.5h35V213H204V114Z"/></svg>