<svg id="Capa_1" data-name="Capa 1" xmlns="http://www.w3.org/2000/svg" viewBox="0 0 607 441"><defs><style>.cls-1,.cls-2{fill:#c4c4c4;}.cls-2{stroke:#fff;stroke-miterlimit:10;stroke-width:14px;}</style></defs><title>suspended</title><circle class="cls-1" cx="228.5" cy="125.5" r="96.5"/><path class="cls-1" d="M357.4,181l-11.65-.25a21.07,21.07,0,0,0-7.31,1.1,35.69,35.69,0,0,0-18.09,14.11C301.83,224,265.9,241,228.5,241c-36.82,0-69.22-15.09-88.1-42.68A30.74,30.74,0,0,0,115,185h0c-56.83,3-77,43-83.87,96.59C30.41,287.26,21,367.81,21,367.81A55.19,55.19,0,0,0,76.19,423H381.81A55.19,55.19,0,0,0,437,367.81s-10-81-11.13-86.22c-11.75-54-14.81-90.83-65.29-100.31A19.92,19.92,0,0,0,357.4,181Z"/><path class="cls-2" d="M585.63,235.24l-31.87-31.87a14.66,14.66,0,0,0-20.74,0l-52.16,52.15-52.15-52.15a14.66,14.66,0,0,0-20.74,0L376.1,235.24a14.66,14.66,0,0,0,0,20.74l52.15,52.16L376.1,360.29a14.66,14.66,0,0,0,0,20.74L408,412.9a14.66,14.66,0,0,0,20.74,0l52.15-52.15L533,412.9a14.66,14.66,0,0,0,20.74,0L585.63,381a14.66,14.66,0,0,0,0-20.74l-52.15-52.15L585.63,256A14.66,14.66,0,0,0,585.63,235.24Z"/></svg>